<?xml version="1.0" encoding="UTF-8" standalone="no"?>
<!-- Created with Inkscape (http://www.inkscape.org/) -->

<svg
   xmlns:dc="http://purl.org/dc/elements/1.1/"
   xmlns:cc="http://creativecommons.org/ns#"
   xmlns:rdf="http://www.w3.org/1999/02/22-rdf-syntax-ns#"
   xmlns:svg="http://www.w3.org/2000/svg"
   xmlns="http://www.w3.org/2000/svg"
   xmlns:sodipodi="http://sodipodi.sourceforge.net/DTD/sodipodi-0.dtd"
   xmlns:inkscape="http://www.inkscape.org/namespaces/inkscape"
   width="41.063965mm"
   height="13.011432mm"
   viewBox="0 0 41.063965 13.011432"
   version="1.1"
   id="svg8"
   inkscape:version="0.92.1 r15371"
   sodipodi:docname="drupal_8_themming_logo.svg">
  <defs
     id="defs2" />
  <sodipodi:namedview
     id="base"
     pagecolor="#ffffff"
     bordercolor="#666666"
     borderopacity="1.0"
     inkscape:pageopacity="0.0"
     inkscape:pageshadow="2"
     inkscape:zoom="0.4792789"
     inkscape:cx="337.78779"
     inkscape:cy="-234.69903"
     inkscape:document-units="mm"
     inkscape:current-layer="layer1"
     showgrid="false"
     inkscape:window-width="1366"
     inkscape:window-height="705"
     inkscape:window-x="-8"
     inkscape:window-y="-8"
     inkscape:window-maximized="1" />
  <metadata
     id="metadata5">
    <rdf:RDF>
      <cc:Work
         rdf:about="">
        <dc:format>image/svg+xml</dc:format>
        <dc:type
           rdf:resource="http://purl.org/dc/dcmitype/StillImage" />
        <dc:title></dc:title>
      </cc:Work>
    </rdf:RDF>
  </metadata>
  <g
     inkscape:label="Layer 1"
     inkscape:groupmode="layer"
     id="layer1"
     transform="translate(-15.626979,-7.1457633)">
    <g
       aria-label="Drupal 8
"
       style="font-style:normal;font-weight:normal;font-size:10.58333302px;line-height:1.25;font-family:sans-serif;letter-spacing:0px;word-spacing:0px;fill:#0000ff;fill-opacity:1;stroke:none;stroke-width:0.26458332"
       id="text3682">
      <path
         d="M 15.865266,14.89206 V 7.3343823 h 3.609598 q 0.868164,0 1.434021,0.2015381 0.568441,0.1989542 0.896586,0.6175333 0.330729,0.4159953 0.475423,1.0774536 0.144694,0.6614583 0.144694,1.6407267 0,1.165303 -0.147277,1.924947 -0.144694,0.759644 -0.485759,1.222148 -0.341064,0.45992 -0.925008,0.666626 -0.58136,0.206705 -1.488281,0.206705 z m 1.449523,-1.227315 h 1.788005 q 0.573608,0 0.922424,-0.103353 0.348816,-0.103353 0.552938,-0.369486 0.204122,-0.268718 0.289388,-0.762228 0.08785,-0.49351 0.08785,-1.30483 0,-1.082621 -0.139526,-1.6200556 -0.139527,-0.5374349 -0.47284,-0.7286377 -0.333313,-0.1912028 -0.9741,-0.1912028 h -2.054139 z"
         style="font-style:normal;font-variant:normal;font-weight:bold;font-stretch:normal;font-family:Evropa;-inkscape-font-specification:'Evropa Bold'"
         id="path4816"
         inkscape:connector-curvature="0" />
      <path
         d="m 27.471792,11.282462 v 0.361735 h -1.16272 v -0.235128 q 0,-0.488342 -0.124023,-0.692464 -0.12144,-0.206706 -0.586528,-0.206706 -0.462504,0 -0.692464,0.279053 -0.227376,0.279052 -0.227376,0.749308 v 3.3538 H 23.42036 V 9.6107291 h 1.206644 l -0.04392,0.7105509 h 0.03359 q 0.201538,-0.3901571 0.571025,-0.5916952 0.369486,-0.2041219 0.824239,-0.2041219 0.563273,0 0.886251,0.2118734 0.322977,0.2092896 0.447001,0.5942787 0.126607,0.38499 0.126607,0.950847 z"
         style="font-style:normal;font-variant:normal;font-weight:bold;font-stretch:normal;font-family:Evropa;-inkscape-font-specification:'Evropa Bold'"
         id="path4818"
         inkscape:connector-curvature="0" />
      <path
         d="M 28.319285,13.240998 V 9.6107291 h 1.258321 v 3.2814529 q 0,0.431499 0.06718,0.656291 0.06976,0.222209 0.281636,0.328145 0.214457,0.105937 0.645955,0.105937 1.237651,0 1.237651,-1.185974 V 9.6107291 h 1.260905 V 14.89206 h -1.21698 l 0.05168,-0.793233 h -0.04134 q -0.545186,0.868164 -1.671732,0.868164 -0.658875,0 -1.067119,-0.157613 -0.40566,-0.160197 -0.607198,-0.537435 -0.198954,-0.379822 -0.198954,-1.030945 z"
         style="font-style:normal;font-variant:normal;font-weight:bold;font-stretch:normal;font-family:Evropa;-inkscape-font-specification:'Evropa Bold'"
         id="path4820"
         inkscape:connector-curvature="0" />
      <path
         d="m 35.530731,9.6107291 -0.05426,0.7415569 h 0.04134 q 0.299723,-0.4676719 0.671794,-0.6459555 0.37207,-0.1808676 0.948262,-0.1808676 0.857829,0 1.315165,0.3100586 0.459921,0.3074745 0.620117,0.8836665 0.160197,0.573609 0.160197,1.496033 0,0.676961 -0.06201,1.139465 -0.06201,0.462505 -0.260966,0.829407 -0.198955,0.366903 -0.607198,0.576192 -0.40566,0.206706 -1.080038,0.206706 -0.40566,0 -0.702799,-0.05943 -0.294556,-0.05684 -0.532267,-0.232544 -0.235128,-0.1757 -0.415996,-0.503845 V 17.12448 H 34.311167 V 9.6107291 Z m 0.04134,2.4985549 q 0,0.788066 0.07751,1.167888 0.07752,0.377238 0.330729,0.542602 0.253215,0.162781 0.798401,0.162781 0.537435,0 0.785482,-0.19637 0.25063,-0.198955 0.312642,-0.565857 0.0646,-0.366903 0.0646,-1.080038 0,-0.731221 -0.0956,-1.067118 -0.09302,-0.338481 -0.328145,-0.449585 -0.232544,-0.113688 -0.718302,-0.113688 -0.501262,0 -0.759644,0.129191 -0.258382,0.129191 -0.364319,0.470256 -0.103353,0.33848 -0.103354,0.999938 z"
         style="font-style:normal;font-variant:normal;font-weight:bold;font-stretch:normal;font-family:Evropa;-inkscape-font-specification:'Evropa Bold'"
         id="path4822"
         inkscape:connector-curvature="0" />
      <path
         d="m 45.005604,11.409069 v 3.482991 h -1.227315 l 0.0646,-0.65629 h -0.04393 q -0.183452,0.322977 -0.43925,0.483174 -0.253215,0.160197 -0.550354,0.204122 -0.294556,0.04392 -0.733805,0.04392 -0.604615,0 -1.028361,-0.134359 -0.421163,-0.134358 -0.661459,-0.483174 -0.237711,-0.348816 -0.237711,-0.961182 0,-0.692464 0.242879,-1.059367 0.242879,-0.366902 0.741557,-0.503845 0.501261,-0.139526 1.343587,-0.139526 0.390157,0 0.622701,0.05426 0.232544,0.05426 0.3514,0.147278 0.118855,0.09043 0.188619,0.224792 0.06976,0.131775 0.10852,0.20929 v -0.912089 q 0,-0.63562 -0.242879,-0.850077 -0.240295,-0.217041 -0.901754,-0.217041 -0.390157,0 -0.60203,0.06718 -0.211874,0.0646 -0.302307,0.232544 -0.09043,0.167948 -0.09043,0.483174 h -1.268656 q 0,-0.537434 0.16278,-0.86558 0.165365,-0.3307289 0.459921,-0.488342 0.297139,-0.1576131 0.661458,-0.2015381 0.366903,-0.043925 0.927592,-0.043925 0.834574,0 1.346171,0.1240235 0.51418,0.1240234 0.81132,0.5348506 0.297139,0.410828 0.297139,1.224732 z m -1.258321,1.88619 q 0,-0.312643 -0.111104,-0.478007 -0.111104,-0.167949 -0.377238,-0.237712 -0.266134,-0.06976 -0.759644,-0.06976 -0.630452,0 -0.855245,0.147278 -0.224792,0.147277 -0.224792,0.583943 0,0.382406 0.113688,0.563273 0.113688,0.178284 0.328145,0.232544 0.214458,0.05168 0.604615,0.05168 0.594279,0 0.937927,-0.144694 0.343648,-0.144694 0.343648,-0.648539 z"
         style="font-style:normal;font-variant:normal;font-weight:bold;font-stretch:normal;font-family:Evropa;-inkscape-font-specification:'Evropa Bold'"
         id="path4824"
         inkscape:connector-curvature="0" />
      <path
         d="M 47.529999,7.3473014 V 14.89206 H 46.251007 V 7.3473014 Z"
         style="font-style:normal;font-variant:normal;font-weight:bold;font-stretch:normal;font-family:Evropa;-inkscape-font-specification:'Evropa Bold'"
         id="path4826"
         inkscape:connector-curvature="0" />
      <path
         d="M 53.020618,10.711437 Q 52.710559,10.163667 52.586536,9.8019319 52.462512,9.4350292 52.462512,9.1043 q 0,-0.8423258 0.599447,-1.4004312 0.604614,-0.5581055 1.539958,-0.5581055 0.759643,0 1.353922,0.2790527 0.599447,0.2738851 0.599447,0.5684408 0,0.1756998 -0.211874,0.3669026 -0.206705,0.1912028 -0.377238,0.1912028 -0.09302,0 -0.496093,-0.2428792 -0.397909,-0.2428792 -0.816488,-0.2428792 -0.501261,0 -0.769979,0.289388 -0.268717,0.289388 -0.268717,0.8216552 0,0.1756999 0.07235,0.377238 0.07751,0.2015381 0.232544,0.449585 0.428914,-0.3927409 0.847493,-0.9095052 0.423747,-0.521932 0.532267,-0.521932 0.160197,0 0.253215,0.2273763 0.09302,0.2222086 0.09302,0.6097819 0,0.4495849 -0.925008,1.255737 -0.155029,0.134359 -0.237711,0.206706 0.37207,0.589111 0.532267,1.054199 0.165365,0.465088 0.165365,0.914673 0,0.940511 -0.640788,1.545125 -0.640788,0.599447 -1.643311,0.599447 -0.800984,0 -1.322916,-0.444417 -0.521932,-0.449585 -0.521932,-1.131714 0,-0.589112 0.454752,-1.219564 0.459921,-0.630453 1.51412,-1.477946 z m 0.532267,0.837158 q -0.702799,0.532267 -1.038696,0.966349 -0.335897,0.434082 -0.335897,0.81132 0,0.325562 0.206706,0.532268 0.211873,0.206705 0.542602,0.206705 0.444417,0 0.749308,-0.335896 0.310059,-0.335897 0.310059,-0.837159 0,-0.356567 -0.108521,-0.687296 -0.10852,-0.335897 -0.325561,-0.656291 z"
         style="font-style:normal;font-variant:normal;font-weight:bold;font-stretch:normal;font-family:'Freehand521 BT';-inkscape-font-specification:'Freehand521 BT Bold';fill:#ff00ff"
         id="path4828"
         inkscape:connector-curvature="0" />
    </g>
    <rect
       style="fill:#000000;fill-opacity:1;stroke:#000000;stroke-width:0.20176974;stroke-opacity:1"
       id="rect3965"
       width="40.862194"
       height="3.8561666"
       x="15.727864"
       y="16.200144" />
    <g
       aria-label="Themming"
       transform="scale(1.5095849,0.66243376)"
       style="font-style:normal;font-weight:normal;font-size:4.98500586px;line-height:1.25;font-family:sans-serif;letter-spacing:0px;word-spacing:0px;fill:#ffffff;fill-opacity:1;stroke:none;stroke-width:0.12462515"
       id="text3690">
      <path
         d="m 10.819549,25.288423 h 3.074249 v 0.413795 h -1.290065 v 3.220294 h -0.494119 v -3.220294 h -1.290065 z"
         style="fill:#ffffff;stroke-width:0.12462515"
         id="path4799"
         inkscape:connector-curvature="0" />
      <path
         d="m 16.617539,27.277071 v 1.645441 h -0.447872 v -1.630837 q 0,-0.387019 -0.150913,-0.579312 -0.150913,-0.192293 -0.45274,-0.192293 -0.362678,0 -0.57201,0.231238 -0.209331,0.231238 -0.209331,0.630428 v 1.540776 h -0.450306 v -3.787436 h 0.450306 v 1.484792 q 0.16065,-0.245843 0.377283,-0.367547 0.219068,-0.121704 0.503856,-0.121704 0.469778,0 0.710753,0.29209 0.240974,0.289656 0.240974,0.854364 z"
         style="fill:#ffffff;stroke-width:0.12462515"
         id="path4801"
         inkscape:connector-curvature="0" />
      <path
         d="m 19.84757,27.447457 v 0.219067 h -2.059236 q 0.02921,0.462476 0.277486,0.705885 0.25071,0.240974 0.696148,0.240974 0.258013,0 0.498987,-0.06329 0.243409,-0.06329 0.481949,-0.189859 v 0.423531 q -0.240974,0.102232 -0.494119,0.155782 -0.253145,0.05355 -0.513592,0.05355 -0.652335,0 -1.034486,-0.379718 -0.379717,-0.379717 -0.379717,-1.027184 0,-0.669373 0.360244,-1.061261 0.362679,-0.394321 0.976068,-0.394321 0.550103,0 0.868969,0.355376 0.321299,0.352942 0.321299,0.961464 z m -0.447872,-0.131441 q -0.0049,-0.367547 -0.206897,-0.586614 -0.199595,-0.219068 -0.530631,-0.219068 -0.374849,0 -0.601219,0.211765 -0.223935,0.211766 -0.258013,0.596351 z"
         style="fill:#ffffff;stroke-width:0.12462515"
         id="path4803"
         inkscape:connector-curvature="0" />
      <path
         d="m 22.705186,26.719665 q 0.167952,-0.301826 0.401624,-0.445437 0.233672,-0.143611 0.550103,-0.143611 0.425965,0 0.657203,0.299392 0.231238,0.296958 0.231238,0.847062 v 1.645441 h -0.450306 v -1.630837 q 0,-0.391887 -0.138742,-0.581746 -0.138743,-0.189859 -0.423531,-0.189859 -0.348074,0 -0.550103,0.231238 -0.202029,0.231238 -0.202029,0.630428 v 1.540776 h -0.450306 v -1.630837 q 0,-0.394322 -0.138743,-0.581746 -0.138743,-0.189859 -0.428399,-0.189859 -0.343206,0 -0.545235,0.233672 -0.202029,0.231238 -0.202029,0.627994 v 1.540776 h -0.450306 v -2.726175 h 0.450306 v 0.423531 q 0.153347,-0.250711 0.367547,-0.369981 0.214199,-0.11927 0.508724,-0.11927 0.296958,0 0.503855,0.150913 0.209331,0.150913 0.309129,0.438135 z"
         style="fill:#ffffff;stroke-width:0.12462515"
         id="path4805"
         inkscape:connector-curvature="0" />
      <path
         d="m 27.563619,26.719665 q 0.167952,-0.301826 0.401624,-0.445437 0.233672,-0.143611 0.550103,-0.143611 0.425965,0 0.657203,0.299392 0.231238,0.296958 0.231238,0.847062 v 1.645441 h -0.450306 v -1.630837 q 0,-0.391887 -0.138743,-0.581746 -0.138743,-0.189859 -0.42353,-0.189859 -0.348075,0 -0.550104,0.231238 -0.202029,0.231238 -0.202029,0.630428 v 1.540776 H 27.18877 v -1.630837 q 0,-0.394322 -0.138743,-0.581746 -0.138743,-0.189859 -0.428399,-0.189859 -0.343206,0 -0.545235,0.233672 -0.202029,0.231238 -0.202029,0.627994 v 1.540776 h -0.450306 v -2.726175 h 0.450306 v 0.423531 q 0.153347,-0.250711 0.367547,-0.369981 0.214199,-0.11927 0.508723,-0.11927 0.296959,0 0.503856,0.150913 0.209331,0.150913 0.309129,0.438135 z"
         style="fill:#ffffff;stroke-width:0.12462515"
         id="path4807"
         inkscape:connector-curvature="0" />
      <path
         d="m 30.299529,26.196337 h 0.447872 v 2.726175 h -0.447872 z m 0,-1.061261 h 0.447872 v 0.567142 h -0.447872 z"
         style="fill:#ffffff;stroke-width:0.12462515"
         id="path4809"
         inkscape:connector-curvature="0" />
      <path
         d="m 33.948223,27.277071 v 1.645441 h -0.447871 v -1.630837 q 0,-0.387019 -0.150914,-0.579312 -0.150913,-0.192293 -0.45274,-0.192293 -0.362678,0 -0.572009,0.231238 -0.209332,0.231238 -0.209332,0.630428 v 1.540776 h -0.450305 v -2.726175 h 0.450305 v 0.423531 q 0.16065,-0.245843 0.377283,-0.367547 0.219068,-0.121704 0.503856,-0.121704 0.469778,0 0.710753,0.29209 0.240974,0.289656 0.240974,0.854364 z"
         style="fill:#ffffff;stroke-width:0.12462515"
         id="path4811"
         inkscape:connector-curvature="0" />
      <path
         d="m 36.640321,27.527781 q 0,-0.486817 -0.202029,-0.754566 -0.199595,-0.267749 -0.562274,-0.267749 -0.360244,0 -0.562273,0.267749 -0.199595,0.267749 -0.199595,0.754566 0,0.484383 0.199595,0.752133 0.202029,0.267749 0.562273,0.267749 0.362679,0 0.562274,-0.267749 0.202029,-0.26775 0.202029,-0.752133 z m 0.447872,1.056393 q 0,0.696149 -0.309129,1.034486 -0.309129,0.340772 -0.946859,0.340772 -0.236106,0 -0.445438,-0.03651 -0.209331,-0.03408 -0.406492,-0.1071 V 29.38012 q 0.197161,0.1071 0.389454,0.158216 0.192293,0.05111 0.391888,0.05111 0.440569,0 0.659637,-0.231238 0.219067,-0.228804 0.219067,-0.693714 v -0.221502 q -0.138743,0.240975 -0.355376,0.360245 -0.216634,0.11927 -0.51846,0.11927 -0.501422,0 -0.808117,-0.382151 -0.306694,-0.382152 -0.306694,-1.01258 0,-0.632862 0.306694,-1.015013 0.306695,-0.382151 0.808117,-0.382151 0.301826,0 0.51846,0.11927 0.216633,0.11927 0.355376,0.360244 v -0.413794 h 0.447872 z"
         style="fill:#ffffff;stroke-width:0.12462515"
         id="path4813"
         inkscape:connector-curvature="0" />
    </g>
  </g>
</svg>
