<?xml version="1.0" encoding="UTF-8"?>
<!DOCTYPE svg PUBLIC "-//W3C//DTD SVG 1.1//EN" "http://www.w3.org/Graphics/SVG/1.1/DTD/svg11.dtd">
<!-- Creator: CorelDRAW -->
<svg xmlns="http://www.w3.org/2000/svg" xml:space="preserve" width="2.26381in" height="0.942343in" style="shape-rendering:geometricPrecision; text-rendering:geometricPrecision; image-rendering:optimizeQuality; fill-rule:evenodd; clip-rule:evenodd"
viewBox="0 0 1.29214 0.53787"
 xmlns:xlink="http://www.w3.org/1999/xlink">
 <defs>
  <style type="text/css">
   <![CDATA[
    .fil1 {fill:#838281;fill-rule:nonzero}
    .fil0 {fill:#7D1F6F;fill-rule:nonzero}
   ]]>
  </style>
 </defs>
 <g id="Layer_x0020_1">
  <metadata id="CorelCorpID_0Corel-Layer"/>
  <path class="fil0" d="M0.162913 0l0.160003 0.353946 -0.048487 0 -0.0455747 -0.10085 -0.160005 0 -0.0442826 0.101012 -0.0168088 -0.000161796 0.155155 -0.353946zm-0.0140605 0.0741834l-0.0731339 0.164367 0.144731 0 -0.0715969 -0.164367z"/>
  <path id="1" class="fil0" d="M0.335034 0.145942c0,-0.0109886 0.0018584,-0.0193121 0.00557521,-0.0249705 0.00371906,-0.00565611 0.00961786,-0.00848304 0.0176987,-0.00848304 0.0080808,0 0.0143841,0.00161571 0.0189099,0.00484713 0.00129212,0.000970775 0.00298873,0.00258649 0.00508983,0.00484938 0.0021011,0.00226289 0.00428309,0.00484713 0.00654599,0.00775721l0.0940618 0.13576 0.00444489 0.0062224 0.00331232 0.00153481c0.00258649,0 0.00388085,-0.00290783 0.00388085,-0.00872798l0 -0.148364 0.0140605 0 0 0.224973c0,0.00840439 -0.00307187,0.0126066 -0.00921337,0.0126066 -0.00258649,0 -0.00517072,-0.000970775 -0.00775721,-0.00291008l-0.0061415 -0.00783811 -0.118466 -0.167679c-0.00484938,-0.00646509 -0.00872798,-0.0100201 -0.0116381,-0.0106673 -0.0038786,0 -0.00581791,0.00355501 -0.00581791,0.0106673l0 0.178427 -0.0145459 0 0 -0.208004z"/>
  <path id="12" class="fil0" d="M0.602676 0.116367l0 0.237579 -0.0436377 0 0 -0.237579 0.0436377 0zm0 -0.0470309c0,0.0061415 -0.0021011,0.0113931 -0.00638419,0.0157571 -0.00428309,0.00436399 -0.00945382,0.00654599 -0.0154335,0.00654599 -0.0059797,0 -0.0112336,-0.0021011 -0.0156785,-0.00630329 -0.0041213,-0.00484938 -0.0061415,-0.0101819 -0.0061415,-0.0159998 0,-0.00582015 0.0021011,-0.0109909 0.00638419,-0.0155167 0.00428309,-0.00452579 0.00945606,-0.00678868 0.0154358,-0.00678868 0.00565611,0 0.0107459,0.00226289 0.0151908,0.00678868 0.00444489,0.0038786 0.00662689,0.00905157 0.00662689,0.0155167z"/>
  <polygon id="123" class="fil0" points="0.798073,0.116367 0.798073,0.130913 0.737465,0.130913 0.737465,0.353946 0.693827,0.353946 0.693827,0.130913 0.633221,0.130913 0.633221,0.116367 "/>
  <path id="1234" class="fil0" d="M0.871284 0.130913c0.00258649,-0.00840439 0.00581791,-0.0145459 0.00969876,-0.0184245 0.0038786,-0.00388085 0.00904933,-0.00582015 0.0155144,-0.00582015 0.00678868,0 0.0121212,0.0020202 0.0159998,0.0060606 0.0038786,0.0040404 0.00727407,0.010101 0.0101819,0.018184l0.0751541 0.223033 -0.041213 0 -0.0184245 -0.0562443 -0.105053 0 -0.0183436 0.0561634 -0.0162425 8.08979e-005 0.0727272 -0.223033zm0.0256986 0.0387883c-0.00291008,-0.00969876 -0.00646509,-0.0145459 -0.0106673,-0.0145459 -0.00355501,0 -0.00727407,0.00452579 -0.0111527,0.0135751l-0.0367681 0.114426 0.0931741 0 -0.0345861 -0.113455z"/>
  <path id="12345" class="fil0" d="M1.05602 0.017456c0.000968527,-0.00291008 0.00242469,-0.00541566 0.00436399,-0.00751676 0.0019393,-0.0021011 0.00549431,-0.00347411 0.010665,-0.0041213 0.0042022,0 0.00775946,0.00145616 0.0106673,0.00436399 0.0019393,0.00258649 0.00323367,0.00581791 0.0038786,0.00969876 0,0.00452354 -0.0021011,0.00904933 -0.00630329,0.0135751l-0.0504241 0.0557589 0.0271525 -0.0717587z"/>
  <path id="123456" class="fil0" d="M1.27662 0.131882l-0.0722441 0c-0.0303839,0 -0.045577,0.0134156 -0.045577,0.0402445 0,0.0135751 0.00436399,0.023757 0.013092,0.0305457 0.00775721,0.00581791 0.0187481,0.00872574 0.0329704,0.00872574 0.0290918,0 0.0512331,0.00695048 0.0664262,0.0208492 0.0138987,0.0129302 0.0208469,0.0290918 0.0208469,0.048487 0,0.0252109 -0.0062224,0.0437163 -0.0186649,0.0555162 -0.0124448,0.0117976 -0.0346692,0.0176964 -0.0666688,0.0176964l-0.0775766 0 0 -0.017456 0.0717587 0c0.0213323,0 0.0363636,-0.00436174 0.0450916,-0.0130897 0.00743362,-0.00743586 0.0111504,-0.0185863 0.0111504,-0.0334558 0,-0.0129302 -0.00460444,-0.0226267 -0.0138178,-0.0290918 -0.00921112,-0.00646509 -0.0238379,-0.00969651 -0.0438781,-0.00969651 -0.0200425,0 -0.0371726,-0.00517072 -0.0513949,-0.0155144 -0.0161638,-0.0116381 -0.0242446,-0.0281233 -0.0242446,-0.0494556 0,-0.0465477 0.0248896,-0.0698194 0.0746687,-0.0698194l0.078062 0 0 0.0155144z"/>
  <path class="fil1" d="M0.759874 0.527528c-0.00667408,0.00342018 -0.0132673,0.00599094 -0.0198043,0.00774148 -0.00651003,0.00172357 -0.0129661,0.00259997 -0.0193661,0.00259997 -0.00648307,0 -0.0126088,-0.000849428 -0.0184088,-0.00251682 -0.00579768,-0.00169661 -0.0111864,-0.00418647 -0.01622,-0.00749429 -0.00823361,-0.00536173 -0.0146066,-0.012256 -0.0191481,-0.0207615 -0.00453927,-0.00848079 -0.00681115,-0.0177256 -0.00681115,-0.0277367 0,-0.00752126 0.0015056,-0.0148245 0.00448759,-0.0219098 0.00297974,-0.00708531 0.0072471,-0.0132673 0.0127459,-0.0185458 0.00577072,-0.00560667 0.0123077,-0.00984707 0.0196672,-0.0127459 0.00733025,-0.00287187 0.0152358,-0.0043213 0.0236874,-0.0043213 0.00612801,0 0.012474,0.000874147 0.018984,0.00259772 0.00651003,0.00175054 0.013238,0.00437523 0.0201863,0.00790552l0 0.00929876c-0.0075235,-0.00402018 -0.0145257,-0.0069752 -0.0210065,-0.00888978 -0.0064561,-0.00194155 -0.0126111,-0.00289884 -0.0184919,-0.00289884 -0.00525162,0 -0.0102291,0.000712351 -0.0149886,0.00213256 -0.00475949,0.00139549 -0.00924708,0.00347411 -0.0134583,0.00621116 -0.00694823,0.00470331 -0.0123369,0.0106673 -0.0161931,0.0178874 -0.00385838,0.00724935 -0.00577296,0.0151549 -0.00577296,0.0236896 0,0.00656396 0.00123145,0.0129369 0.0037213,0.0191189 0.00248986,0.00615498 0.00599094,0.0115976 0.0105302,0.0163032 0.00454152,0.00470331 0.00993022,0.0083145 0.0161661,0.0108044 0.00620891,0.00251682 0.012883,0.00377523 0.0199953,0.00377523 0.00582689,0 0.0119527,-0.000957292 0.0183818,-0.00290109 0.00642689,-0.00191458 0.0134852,-0.00486736 0.0211166,-0.00888978l0 0.00954595z"/>
  <path id="1" class="fil1" d="M0.781426 0.479772c0,0.00656396 0.00123145,0.0129369 0.0037213,0.0191189 0.00248986,0.00615498 0.0060179,0.0115976 0.0105572,0.0163032 0.00454152,0.00459545 0.00984707,0.00817743 0.0159481,0.0107212 0.0060988,0.00257076 0.0123639,0.00385838 0.018847,0.00385838 0.00667408,0 0.0129639,-0.00123145 0.0189009,-0.0037213 0.00593476,-0.00248986 0.0112133,-0.0060988 0.015865,-0.0108583 0.00464938,-0.00470556 0.00820439,-0.0100943 0.0106673,-0.0161931 0.00246064,-0.00610105 0.00369209,-0.012501 0.00369209,-0.019229 0,-0.00673025 -0.00120448,-0.0130762 -0.00363816,-0.0190672 -0.00243368,-0.00598869 -0.0060179,-0.0113504 -0.0107212,-0.0161099 -0.00465163,-0.00470556 -0.00995718,-0.00834372 -0.0159751,-0.0108875 -0.0060179,-0.00257076 -0.0122807,-0.00385613 -0.0187908,-0.00385613 -0.00648307,0 -0.012692,0.00125841 -0.0186829,0.0038022 -0.00599094,0.00254379 -0.0113527,0.00618195 -0.0161122,0.0109414 -0.00459545,0.00459545 -0.0081235,0.00992797 -0.0105841,0.0159751 -0.00246289,0.00607184 -0.00369434,0.0124718 -0.00369434,0.019202zm-0.00984707 -0.000411231c0,-0.00752126 0.0015056,-0.0147976 0.00448759,-0.0218289 0.00297974,-0.00702913 0.0072471,-0.013238 0.0127459,-0.0186267 0.00566285,-0.00549881 0.0120628,-0.00968303 0.019202,-0.0125819 0.00711227,-0.00287187 0.0146066,-0.0043213 0.0224851,-0.0043213 0.00795945,0 0.0154807,0.00144942 0.0226199,0.0043213 0.00713924,0.00289884 0.0134852,0.00708306 0.019038,0.0125819 0.00566285,0.00555274 0.00995718,0.0117886 0.012856,0.0187099 0.00292581,0.00692126 0.00437747,0.0143054 0.00437747,0.022157 0,0.00588083 -0.000849428,0.0115684 -0.00251682,0.0170672 -0.00169661,0.00549881 -0.00418647,0.0106403 -0.00749429,0.0153998 -0.00555274,0.00815046 -0.0126111,0.0144695 -0.0211188,0.0189279 -0.00853248,0.00445837 -0.0177796,0.00670329 -0.0277615,0.00670329 -0.00793249,0 -0.015483,-0.00147863 -0.0227323,-0.00440444 -0.0072471,-0.00295502 -0.0135661,-0.00711227 -0.0189548,-0.012501 -0.00560667,-0.00560667 -0.00987404,-0.0119796 -0.0128291,-0.0190649 -0.00292581,-0.00711227 -0.00440444,-0.0146066 -0.00440444,-0.022539z"/>
  <path id="12" class="fil1" d="M0.917892 0.431273l0 0.0430534 0.0068943 0c0.00856169,0 0.0144965,-0.000217975 0.0178065,-0.000629206 0.00331007,-0.00043595 0.0060988,-0.0011483 0.00834147,-0.00218874 0.00410332,-0.00180447 0.00719542,-0.00434826 0.00924708,-0.00760215 0.00205166,-0.00325614 0.00308985,-0.00730328 0.00308985,-0.012119 0,-0.00651003 -0.00232581,-0.0115706 -0.00694823,-0.0151526 -0.00462242,-0.00358423 -0.0111594,-0.00536173 -0.0196672,-0.00536173l-0.0187638 0zm-0.00897068 -0.00752126l0.0272424 0c0.0119279,0 0.0210627,0.00240671 0.0274087,0.0072471 0.00637296,0.00484264 0.00954595,0.0117617 0.00954595,0.0207885 0,0.0068943 -0.00177751,0.0126111 -0.00533252,0.0171773 -0.00355726,0.00454152 -0.00888978,0.0079617 -0.0160582,0.0102583 0.00202469,0.00117751 0.00388535,0.00251682 0.00552577,0.00407635 0.00166964,0.00155953 0.00314603,0.00331007 0.00448534,0.00527859l0.0308558 0.0472938 -0.0101752 0 -0.0178627 -0.0275727c-0.00352805,-0.0053887 -0.00659093,-0.00984707 -0.00913472,-0.0133482 -0.002573,-0.00350108 -0.00459545,-0.00599094 -0.00610105,-0.00749429 -0.00196852,-0.00196852 -0.00459545,-0.003364 -0.00784934,-0.00421343 -0.00325614,-0.000820215 -0.0080426,-0.0012292 -0.0143616,-0.0012292l-0.00921786 0 0 0.0538578 -0.00897068 0 0 -0.11212z"/>
  <polygon id="123" class="fil1" points="1.00083,0.535872 1.00083,0.423752 1.01021,0.423752 1.09227,0.521594 1.09227,0.423752 1.10124,0.423752 1.10124,0.535872 1.0929,0.535872 1.0098,0.436743 1.0098,0.535872 "/>
  <polygon id="1234" class="fil1" points="1.12753,0.535872 1.12753,0.423752 1.18828,0.423752 1.18828,0.430972 1.1365,0.430972 1.1365,0.475421 1.18661,0.475421 1.18661,0.482644 1.1365,0.482644 1.1365,0.528351 1.18957,0.528351 1.18957,0.535872 "/>
  <path id="12345" class="fil1" d="M1.21744 0.431273l0 0.0430534 0.0068943 0c0.00856169,0 0.0144965,-0.000217975 0.0178065,-0.000629206 0.00331007,-0.00043595 0.0060988,-0.0011483 0.00834147,-0.00218874 0.00410332,-0.00180447 0.00719542,-0.00434826 0.00924708,-0.00760215 0.00205166,-0.00325614 0.00308985,-0.00730328 0.00308985,-0.012119 0,-0.00651003 -0.00232581,-0.0115706 -0.00694823,-0.0151526 -0.00462242,-0.00358423 -0.0111594,-0.00536173 -0.0196672,-0.00536173l-0.0187638 0zm-0.00897068 -0.00752126l0.0272424 0c0.0119279,0 0.0210627,0.00240671 0.0274087,0.0072471 0.00637296,0.00484264 0.00954595,0.0117617 0.00954595,0.0207885 0,0.0068943 -0.00177751,0.0126111 -0.00533252,0.0171773 -0.00355726,0.00454152 -0.00888978,0.0079617 -0.0160582,0.0102583 0.00202469,0.00117751 0.00388535,0.00251682 0.00552577,0.00407635 0.00166964,0.00155953 0.00314603,0.00331007 0.00448534,0.00527859l0.0308558 0.0472938 -0.0101752 0 -0.0178627 -0.0275727c-0.00352805,-0.0053887 -0.00659093,-0.00984707 -0.00913472,-0.0133482 -0.002573,-0.00350108 -0.00459545,-0.00599094 -0.00610105,-0.00749429 -0.00196852,-0.00196852 -0.00459545,-0.003364 -0.00784934,-0.00421343 -0.00325614,-0.000820215 -0.0080426,-0.0012292 -0.0143616,-0.0012292l-0.00921786 0 0 0.0538578 -0.00897068 0 0 -0.11212z"/>
 </g>
</svg>
