<?xml version="1.0" encoding="UTF-8"?>
<!DOCTYPE svg PUBLIC "-//W3C//DTD SVG 1.1//EN" "http://www.w3.org/Graphics/SVG/1.1/DTD/svg11.dtd">
<!-- Creator: CorelDRAW -->
<svg xmlns="http://www.w3.org/2000/svg" xml:space="preserve" width="1.06299in" height="0.275591in" style="shape-rendering:geometricPrecision; text-rendering:geometricPrecision; image-rendering:optimizeQuality; fill-rule:evenodd; clip-rule:evenodd"
viewBox="0 0 1.06299 0.275591"
 xmlns:xlink="http://www.w3.org/1999/xlink">
 <defs>
  <style type="text/css">
   <![CDATA[
    .str0 {stroke:#1F1A17;stroke-width:0.003}
    .fil3 {fill:none;fill-rule:nonzero}
    .fil2 {fill:#0093DD;fill-rule:nonzero}
    .fil1 {fill:#DD137B;fill-rule:nonzero}
    .fil0 {fill:white;fill-rule:nonzero}
   ]]>
  </style>
 </defs>
 <g id="Layer_x0020_1">
  <metadata id="CorelCorpID_0Corel-Layer"/>
  <path class="fil0" d="M0.0238228 0.178157l0.0701693 -0.00438976c0.0015,0.0113898 0.00461024,0.0200551 0.00927559,0.0260551 0.00755512,0.00966929 0.0184449,0.0144449 0.0325551,0.0144449 0.0105,0 0.0186102,-0.00244488 0.0243346,-0.00738583 0.00566535,-0.00494488 0.0085,-0.0106693 0.0085,-0.0171693 0,-0.00616535 -0.00266535,-0.0117205 -0.00811024,-0.0166102 -0.00544488,-0.00488976 -0.018,-0.0095 -0.0377795,-0.0138346 -0.0323346,-0.00727559 -0.0553898,-0.0168898 -0.0691654,-0.0289449 -0.0138898,-0.0120551 -0.0208346,-0.0273858 -0.0208346,-0.0460551 0,-0.0122756 0.00355512,-0.0238898 0.0106654,-0.0347756 0.00711417,-0.0108898 0.0177795,-0.0194449 0.0320591,-0.0257244 0.0142756,-0.00622047 0.0338307,-0.00933465 0.0586654,-0.00933465 0.0305,0 0.0537795,0.00566929 0.0697795,0.017 0.016,0.0113346 0.0255,0.0293898 0.0285551,0.0541142l-0.0695 0.00405512c-0.00183465,-0.0107244 -0.00572441,-0.0185551 -0.0116693,-0.0234449 -0.00588976,-0.00483465 -0.0140551,-0.00727953 -0.0244449,-0.00727953 -0.00861024,0 -0.0150551,0.00177953 -0.0193858,0.00544488 -0.00433465,0.00361024 -0.0065,0.00805512 -0.0065,0.0132795 0,0.00377559 0.00177559,0.00716535 0.00533071,0.0102205 0.0035,0.00316929 0.0117244,0.00605512 0.0247795,0.00877953 0.0322205,0.00694488 0.0552756,0.014 0.0692205,0.0211102 0.0139449,0.00711024 0.0241142,0.0158898 0.0304449,0.0264449 0.00633465,0.0105 0.00955512,0.0222795 0.00955512,0.0353346 0,0.0152756 -0.00427559,0.0293898 -0.0127205,0.0422756 -0.00844488,0.0129449 -0.0202795,0.0227244 -0.0355,0.0293898 -0.0151693,0.00666535 -0.0343346,0.01 -0.0574449,0.01 -0.0405551,0 -0.0686693,-0.00777559 -0.0842795,-0.0234449 -0.0156654,-0.0156102 -0.0245,-0.0354449 -0.0265551,-0.0595551z"/>
  <path id="1" class="fil0" d="M0.401937 0.189547l0.0629449 0.00716535c-0.00344488,0.0131102 -0.00916535,0.0245 -0.0170551,0.0341102 -0.00794488,0.00961417 -0.0180551,0.0170591 -0.0303898,0.0223898 -0.0122795,0.00527953 -0.0279449,0.00794488 -0.0469449,0.00794488 -0.0183346,0 -0.0336102,-0.00172047 -0.0457756,-0.00511024 -0.0122244,-0.00344488 -0.0227244,-0.00894488 -0.0315039,-0.0166102 -0.00883071,-0.00766929 -0.0157205,-0.0166142 -0.0206654,-0.0269449 -0.005,-0.0102795 -0.0075,-0.0239449 -0.0075,-0.041 0,-0.0177795 0.003,-0.0326142 0.00911024,-0.0444449 0.00444488,-0.00866929 0.0105,-0.0164449 0.0182244,-0.0233346 0.00772047,-0.00688976 0.0156102,-0.0120551 0.0237756,-0.0153898 0.0128898,-0.00533071 0.0294449,-0.008 0.0496142,-0.008 0.0282205,0 0.0497205,0.00505512 0.0645551,0.0151693 0.0147756,0.0100551 0.0252205,0.0248307 0.0311654,0.0442756l-0.0623346 0.00827953c-0.00194094,-0.00738976 -0.0055,-0.0129449 -0.0106654,-0.0166693 -0.00516535,-0.00377559 -0.0120551,-0.00561024 -0.0207756,-0.00561024 -0.0109449,0 -0.0198346,0.00394488 -0.0266142,0.0117795 -0.00677559,0.00788976 -0.0101654,0.0197756 -0.0101654,0.0357205 0,0.0142244 0.00338976,0.025 0.0101102,0.0323898 0.00672441,0.00738976 0.0152795,0.0110551 0.0257244,0.0110551 0.00866535,0 0.0159449,-0.00222047 0.0218858,-0.00666535 0.00588976,-0.00444488 0.0103346,-0.0112795 0.0132795,-0.0205z"/>
  <path id="12" class="fil0" d="M0.495992 0.0842677l0.062 0 0 0.0282795c0.006,-0.0122244 0.0121693,-0.0206693 0.0185,-0.0252795 0.00633465,-0.00461024 0.0141693,-0.00694488 0.0235,-0.00694488 0.00977953,0 0.0204449,0.00305512 0.0320591,0.00911024l-0.0205 0.0472244c-0.00777953,-0.00327953 -0.014,-0.00488976 -0.0185591,-0.00488976 -0.00866535,0 -0.0153858,0.00361024 -0.0201654,0.0107244 -0.00683465,0.0101102 -0.0102756,0.029 -0.0102756,0.0566654l0 0.0579449 -0.0665591 0 0 -0.172835z"/>
  <path id="123" class="fil0" d="M0.640551 0.171157c0,-0.0263346 0.00888976,-0.0481102 0.0266654,-0.0651654 0.0178346,-0.0171142 0.0418346,-0.0256693 0.0721102,-0.0256693 0.0346142,0 0.0607795,0.0100551 0.0784449,0.0301142 0.0142244,0.0161654 0.0213346,0.0361102 0.0213346,0.0597756 0,0.0265551 -0.00883465,0.0483346 -0.0264449,0.0653346 -0.0176102,0.0169449 -0.042,0.0254449 -0.0731654,0.0254449 -0.0277795,0 -0.0502244,-0.00705512 -0.0673898,-0.0211693 -0.0210551,-0.0174409 -0.0315551,-0.0403307 -0.0315551,-0.0686654zm0.0663898 -0.000165354c0,0.0154449 0.00311024,0.0268307 0.00938583,0.0341654 0.00622441,0.00738976 0.0140591,0.0111102 0.0235,0.0111102 0.00955906,0 0.0173898,-0.00366535 0.0235,-0.0109449 0.00616929,-0.00727559 0.00922441,-0.0188858 0.00922441,-0.035 0,-0.0149449 -0.00311024,-0.0261102 -0.00927953,-0.0334449 -0.00616535,-0.00727559 -0.0138307,-0.0109409 -0.0229449,-0.0109409 -0.00966535,0 -0.0176654,0.00372047 -0.0239409,0.0111102 -0.00627953,0.00744488 -0.00944488,0.0187756 -0.00944488,0.0339449z"/>
  <polygon id="1234" class="fil1" points="0.873276,0.0184921 0.93972,0.0184921 0.93972,0.257102 0.873276,0.257102 "/>
  <polygon id="12345" class="fil2" points="0.984276,0.0184921 1.05072,0.0184921 1.05072,0.257102 0.984276,0.257102 "/>
  <path id="123456" class="fil3 str0" d="M0.0238228 0.178157l0.0701693 -0.00438976c0.0015,0.0113898 0.00461024,0.0200551 0.00927559,0.0260551 0.00755512,0.00966929 0.0184449,0.0144449 0.0325551,0.0144449 0.0105,0 0.0186102,-0.00244488 0.0243346,-0.00738583 0.00566535,-0.00494488 0.0085,-0.0106693 0.0085,-0.0171693 0,-0.00616535 -0.00266535,-0.0117205 -0.00811024,-0.0166102 -0.00544488,-0.00488976 -0.018,-0.0095 -0.0377795,-0.0138346 -0.0323346,-0.00727559 -0.0553898,-0.0168898 -0.0691654,-0.0289449 -0.0138898,-0.0120551 -0.0208346,-0.0273858 -0.0208346,-0.0460551 0,-0.0122756 0.00355512,-0.0238898 0.0106654,-0.0347756 0.00711417,-0.0108898 0.0177795,-0.0194449 0.0320591,-0.0257244 0.0142756,-0.00622047 0.0338307,-0.00933465 0.0586654,-0.00933465 0.0305,0 0.0537795,0.00566929 0.0697795,0.017 0.016,0.0113346 0.0255,0.0293898 0.0285551,0.0541142l-0.0695 0.00405512c-0.00183465,-0.0107244 -0.00572441,-0.0185551 -0.0116693,-0.0234449 -0.00588976,-0.00483465 -0.0140551,-0.00727953 -0.0244449,-0.00727953 -0.00861024,0 -0.0150551,0.00177953 -0.0193858,0.00544488 -0.00433465,0.00361024 -0.0065,0.00805512 -0.0065,0.0132795 0,0.00377559 0.00177559,0.00716535 0.00533071,0.0102205 0.0035,0.00316929 0.0117244,0.00605512 0.0247795,0.00877953 0.0322205,0.00694488 0.0552756,0.014 0.0692205,0.0211102 0.0139449,0.00711024 0.0241142,0.0158898 0.0304449,0.0264449 0.00633465,0.0105 0.00955512,0.0222795 0.00955512,0.0353346 0,0.0152756 -0.00427559,0.0293898 -0.0127205,0.0422756 -0.00844488,0.0129449 -0.0202795,0.0227244 -0.0355,0.0293898 -0.0151693,0.00666535 -0.0343346,0.01 -0.0574449,0.01 -0.0405551,0 -0.0686693,-0.00777559 -0.0842795,-0.0234449 -0.0156654,-0.0156102 -0.0245,-0.0354449 -0.0265551,-0.0595551z"/>
  <path id="1234567" class="fil3 str0" d="M0.401937 0.189547l0.0629449 0.00716535c-0.00344488,0.0131102 -0.00916535,0.0245 -0.0170551,0.0341102 -0.00794488,0.00961417 -0.0180551,0.0170591 -0.0303898,0.0223898 -0.0122795,0.00527953 -0.0279449,0.00794488 -0.0469449,0.00794488 -0.0183346,0 -0.0336102,-0.00172047 -0.0457756,-0.00511024 -0.0122244,-0.00344488 -0.0227244,-0.00894488 -0.0315039,-0.0166102 -0.00883071,-0.00766929 -0.0157205,-0.0166142 -0.0206654,-0.0269449 -0.005,-0.0102795 -0.0075,-0.0239449 -0.0075,-0.041 0,-0.0177795 0.003,-0.0326142 0.00911024,-0.0444449 0.00444488,-0.00866929 0.0105,-0.0164449 0.0182244,-0.0233346 0.00772047,-0.00688976 0.0156102,-0.0120551 0.0237756,-0.0153898 0.0128898,-0.00533071 0.0294449,-0.008 0.0496142,-0.008 0.0282205,0 0.0497205,0.00505512 0.0645551,0.0151693 0.0147756,0.0100551 0.0252205,0.0248307 0.0311654,0.0442756l-0.0623346 0.00827953c-0.00194094,-0.00738976 -0.0055,-0.0129449 -0.0106654,-0.0166693 -0.00516535,-0.00377559 -0.0120551,-0.00561024 -0.0207756,-0.00561024 -0.0109449,0 -0.0198346,0.00394488 -0.0266142,0.0117795 -0.00677559,0.00788976 -0.0101654,0.0197756 -0.0101654,0.0357205 0,0.0142244 0.00338976,0.025 0.0101102,0.0323898 0.00672441,0.00738976 0.0152795,0.0110551 0.0257244,0.0110551 0.00866535,0 0.0159449,-0.00222047 0.0218858,-0.00666535 0.00588976,-0.00444488 0.0103346,-0.0112795 0.0132795,-0.0205z"/>
  <path id="12345678" class="fil3 str0" d="M0.495992 0.0842677l0.062 0 0 0.0282795c0.006,-0.0122244 0.0121693,-0.0206693 0.0185,-0.0252795 0.00633465,-0.00461024 0.0141693,-0.00694488 0.0235,-0.00694488 0.00977953,0 0.0204449,0.00305512 0.0320591,0.00911024l-0.0205 0.0472244c-0.00777953,-0.00327953 -0.014,-0.00488976 -0.0185591,-0.00488976 -0.00866535,0 -0.0153858,0.00361024 -0.0201654,0.0107244 -0.00683465,0.0101102 -0.0102756,0.029 -0.0102756,0.0566654l0 0.0579449 -0.0665591 0 0 -0.172835z"/>
  <path id="123456789" class="fil3 str0" d="M0.640551 0.171157c0,-0.0263346 0.00888976,-0.0481102 0.0266654,-0.0651654 0.0178346,-0.0171142 0.0418346,-0.0256693 0.0721102,-0.0256693 0.0346142,0 0.0607795,0.0100551 0.0784449,0.0301142 0.0142244,0.0161654 0.0213346,0.0361102 0.0213346,0.0597756 0,0.0265551 -0.00883465,0.0483346 -0.0264449,0.0653346 -0.0176102,0.0169449 -0.042,0.0254449 -0.0731654,0.0254449 -0.0277795,0 -0.0502244,-0.00705512 -0.0673898,-0.0211693 -0.0210551,-0.0174409 -0.0315551,-0.0403307 -0.0315551,-0.0686654zm0.0663898 -0.000165354c0,0.0154449 0.00311024,0.0268307 0.00938583,0.0341654 0.00622441,0.00738976 0.0140591,0.0111102 0.0235,0.0111102 0.00955906,0 0.0173898,-0.00366535 0.0235,-0.0109449 0.00616929,-0.00727559 0.00922441,-0.0188858 0.00922441,-0.035 0,-0.0149449 -0.00311024,-0.0261102 -0.00927953,-0.0334449 -0.00616535,-0.00727559 -0.0138307,-0.0109409 -0.0229449,-0.0109409 -0.00966535,0 -0.0176654,0.00372047 -0.0239409,0.0111102 -0.00627953,0.00744488 -0.00944488,0.0187756 -0.00944488,0.0339449z"/>
  <polygon id="12345678910" class="fil3 str0" points="0.873276,0.0184921 0.93972,0.0184921 0.93972,0.257102 0.873276,0.257102 "/>
  <polygon id="1234567891011" class="fil3 str0" points="0.984276,0.0184921 1.05072,0.0184921 1.05072,0.257102 0.984276,0.257102 "/>
 </g>
</svg>
