<?xml version="1.0" encoding="UTF-8" standalone="no"?>
<!-- Created with Inkscape (http://www.inkscape.org/) -->

<svg
   xmlns:dc="http://purl.org/dc/elements/1.1/"
   xmlns:cc="http://creativecommons.org/ns#"
   xmlns:rdf="http://www.w3.org/1999/02/22-rdf-syntax-ns#"
   xmlns:svg="http://www.w3.org/2000/svg"
   xmlns="http://www.w3.org/2000/svg"
   xmlns:sodipodi="http://sodipodi.sourceforge.net/DTD/sodipodi-0.dtd"
   xmlns:inkscape="http://www.inkscape.org/namespaces/inkscape"
   width="36.862946mm"
   height="18.382015mm"
   viewBox="0 0 36.862946 18.382015"
   version="1.1"
   id="svg8"
   sodipodi:docname="love_travel_logo.svg"
   inkscape:version="0.92.1 r15371"
   style="enable-background:new">
  <defs
     id="defs2">
    <filter
       style="color-interpolation-filters:sRGB"
       inkscape:label="Drop Shadow"
       id="filter4841">
      <feFlood
         flood-opacity="0.498039"
         flood-color="rgb(0,0,0)"
         result="flood"
         id="feFlood4831" />
      <feComposite
         in="flood"
         in2="SourceGraphic"
         operator="in"
         result="composite1"
         id="feComposite4833" />
      <feGaussianBlur
         in="composite1"
         stdDeviation="3"
         result="blur"
         id="feGaussianBlur4835" />
      <feOffset
         dx="28.1"
         dy="33.6"
         result="offset"
         id="feOffset4837" />
      <feComposite
         in="SourceGraphic"
         in2="offset"
         operator="over"
         result="fbSourceGraphic"
         id="feComposite4839" />
      <feColorMatrix
         result="fbSourceGraphicAlpha"
         in="fbSourceGraphic"
         values="0 0 0 -1 0 0 0 0 -1 0 0 0 0 -1 0 0 0 0 1 0"
         id="feColorMatrix4843" />
      <feFlood
         id="feFlood4845"
         flood-opacity="0.498039"
         flood-color="rgb(217,0,0)"
         result="flood"
         in="fbSourceGraphic" />
      <feComposite
         in2="fbSourceGraphic"
         id="feComposite4847"
         in="flood"
         operator="in"
         result="composite1" />
      <feGaussianBlur
         id="feGaussianBlur4849"
         in="composite1"
         stdDeviation="3"
         result="blur" />
      <feOffset
         id="feOffset4851"
         dx="28.1"
         dy="33.6"
         result="offset" />
      <feComposite
         in2="offset"
         id="feComposite4853"
         in="fbSourceGraphic"
         operator="over"
         result="composite2" />
    </filter>
    <filter
       style="color-interpolation-filters:sRGB"
       inkscape:label="Drop Shadow"
       id="filter4949">
      <feFlood
         flood-opacity="0.498039"
         flood-color="rgb(252,0,0)"
         result="flood"
         id="feFlood4939" />
      <feComposite
         in="flood"
         in2="SourceGraphic"
         operator="in"
         result="composite1"
         id="feComposite4941" />
      <feGaussianBlur
         in="composite1"
         stdDeviation="88.5417"
         result="blur"
         id="feGaussianBlur4943" />
      <feOffset
         dx="-8.9"
         dy="3.1"
         result="offset"
         id="feOffset4945" />
      <feComposite
         in="SourceGraphic"
         in2="offset"
         operator="over"
         result="composite2"
         id="feComposite4947" />
    </filter>
    <filter
       inkscape:collect="always"
       style="color-interpolation-filters:sRGB"
       id="filter6529"
       x="-0.094993517"
       width="1.1899869"
       y="-0.097028039"
       height="1.1940562">
      <feGaussianBlur
         inkscape:collect="always"
         stdDeviation="0.26058214"
         id="feGaussianBlur6531" />
    </filter>
    <filter
       inkscape:collect="always"
       style="color-interpolation-filters:sRGB"
       id="filter6605"
       x="-0.10029886"
       width="1.2005976"
       y="-0.092054494"
       height="1.184109">
      <feGaussianBlur
         inkscape:collect="always"
         stdDeviation="0.25958628"
         id="feGaussianBlur6607" />
    </filter>
    <filter
       inkscape:collect="always"
       style="color-interpolation-filters:sRGB"
       id="filter6609"
       x="-0.12169353"
       width="1.2433871"
       y="-0.079264618"
       height="1.1585292">
      <feGaussianBlur
         inkscape:collect="always"
         stdDeviation="0.21800788"
         id="feGaussianBlur6611" />
    </filter>
    <filter
       inkscape:collect="always"
       style="color-interpolation-filters:sRGB"
       id="filter6937"
       x="-0.10600037"
       width="1.2120007"
       y="-0.087723881"
       height="1.1754478">
      <feGaussianBlur
         inkscape:collect="always"
         stdDeviation="0.314056"
         id="feGaussianBlur6939" />
      <feBlend
         inkscape:collect="always"
         mode="overlay"
         in2="BackgroundImage"
         id="feBlend6941" />
    </filter>
    <filter
       inkscape:collect="always"
       style="color-interpolation-filters:sRGB"
       id="filter7167"
       x="-0.28033608"
       width="1.5606722"
       y="-0.057916667"
       height="1.1158333">
      <feGaussianBlur
         inkscape:collect="always"
         stdDeviation="0.21609392"
         id="feGaussianBlur7169" />
    </filter>
  </defs>
  <sodipodi:namedview
     id="base"
     pagecolor="#ffffff"
     bordercolor="#666666"
     borderopacity="1.0"
     inkscape:pageopacity="0.0"
     inkscape:pageshadow="2"
     inkscape:zoom="4.7339809"
     inkscape:cx="93.578745"
     inkscape:cy="34.737669"
     inkscape:document-units="mm"
     inkscape:current-layer="layer1"
     showgrid="false"
     inkscape:window-width="1366"
     inkscape:window-height="705"
     inkscape:window-x="-8"
     inkscape:window-y="-8"
     inkscape:window-maximized="1" />
  <metadata
     id="metadata5">
    <rdf:RDF>
      <cc:Work
         rdf:about="">
        <dc:format>image/svg+xml</dc:format>
        <dc:type
           rdf:resource="http://purl.org/dc/dcmitype/StillImage" />
      </cc:Work>
    </rdf:RDF>
  </metadata>
  <g
     inkscape:label="Layer 1"
     inkscape:groupmode="layer"
     id="layer1"
     transform="translate(-34.403857,-28.93575)">
    <path
       inkscape:connector-curvature="0"
       id="path5728"
       style="font-style:normal;font-weight:normal;font-size:medium;line-height:1.25;font-family:sans-serif;letter-spacing:0px;word-spacing:0px;fill:#000080;fill-opacity:1;stroke:none;stroke-width:0.27921355;filter:url(#filter4949)"
       d="m 35.114925,36.828059 h 7.110677 v 1.674688 h -2.557983 v 6.917435 h -1.989543 v -6.917435 h -2.563151 z" />
    <path
       inkscape:connector-curvature="0"
       id="path5730"
       style="font-style:normal;font-weight:normal;font-size:medium;line-height:1.25;font-family:sans-serif;letter-spacing:0px;word-spacing:0px;fill:#000080;fill-opacity:1;stroke:none;stroke-width:0.27921355"
       d="m 46.30804,40.729908 q -0.24288,-0.126609 -0.485759,-0.184159 -0.237712,-0.06331 -0.480591,-0.06331 -0.713134,0 -1.100707,0.51219 -0.382406,0.506434 -0.382406,1.455998 v 2.969549 H 42.00856 v -6.44553 h 1.850017 v 1.058907 q 0.356567,-0.633042 0.816487,-0.920789 0.465089,-0.293502 1.111043,-0.293502 0.09302,0 0.201538,0.01151 0.108521,0.0058 0.315227,0.03453 z" />
    <path
       inkscape:connector-curvature="0"
       id="path5734"
       style="font-style:normal;font-weight:normal;font-size:medium;line-height:1.25;font-family:sans-serif;letter-spacing:0px;word-spacing:0px;fill:#000080;fill-opacity:1;stroke:none;stroke-width:0.27921355"
       d="m 53.661595,38.974652 h 1.850017 l 1.441772,4.454321 1.436605,-4.454321 h 1.855183 l -2.27893,6.44553 h -2.030884 z" />
    <path
       inkscape:connector-curvature="0"
       id="path5736"
       style="font-style:normal;font-weight:normal;font-size:medium;line-height:1.25;font-family:sans-serif;letter-spacing:0px;word-spacing:0px;fill:#000080;fill-opacity:1;stroke:none;stroke-width:0.27921355"
       d="m 67.071629,42.180152 v 0.587003 h -4.325317 q 0.06717,0.725122 0.470255,1.087683 0.403076,0.362561 1.126546,0.362561 0.583944,0 1.193726,-0.189913 0.61495,-0.195667 1.260904,-0.587004 v 1.588364 q -0.65629,0.276237 -1.312581,0.414355 -0.65629,0.143874 -1.312581,0.143874 -1.570963,0 -2.444295,-0.886261 -0.868164,-0.892016 -0.868164,-2.497642 0,-1.576853 0.852661,-2.480379 0.857828,-0.903525 2.356445,-0.903525 1.364258,0 2.180746,0.915035 0.821655,0.915035 0.821655,2.445849 z m -1.901693,-0.684838 q 0,-0.587003 -0.310058,-0.943809 -0.304891,-0.362562 -0.800985,-0.362562 -0.537435,0 -0.873331,0.339541 -0.335898,0.333787 -0.41858,0.96683 z" />
    <path
       inkscape:connector-curvature="0"
       id="path5738"
       style="font-style:normal;font-weight:normal;font-size:medium;line-height:1.25;font-family:sans-serif;letter-spacing:0px;word-spacing:0px;fill:#000080;fill-opacity:1;stroke:none;stroke-width:0.27921355"
       d="m 68.466896,36.465499 h 1.850013 v 8.954683 h -1.850013 z" />
    <g
       id="g5708"
       transform="translate(-26.841449,2.062025)"
       style="fill:#ff0000">
      <path
         inkscape:connector-curvature="0"
         id="path3130"
         d="m 74.075149,40.64569 c 0,0 0.106434,0.332573 0.03991,0.478918 -0.0665,0.146393 5.534687,0.07984 5.534687,0.07984 0,0 -0.02664,-0.372533 0.02659,-0.465648 0.05323,-0.09311 0.0133,-0.0665 0.0133,-0.0665 z"
         style="fill:#ff0000;stroke-width:0.02457502" />
      <path
         inkscape:connector-curvature="0"
         id="path3132"
         d="m 74.687116,40.086903 c 0,0 1.037754,-2.847139 1.037754,-2.940303 0,-0.09316 0.133049,-0.07982 0.133049,-0.07982 l -0.705131,3.033418 z"
         style="fill:#ff0000;stroke-width:0.02457502" />
      <polygon
         transform="matrix(0.02457502,0,0,0.02457502,69.858149,26.873701)"
         id="polygon3134"
         points="231.146,406.654 240.35,401.239 337.257,402.864 345.919,406.112 347.003,401.239 337.8,397.992 241.975,396.909 230.064,399.616 "
         style="fill:#ff0000" />
      <path
         inkscape:connector-curvature="0"
         id="path3136"
         d="m 75.897804,36.481403 0.292713,0.03989 0.598697,-7.490393 -0.11973,0.07984 c 0,0 -0.226188,2.887074 -0.226188,3.006803 0,0.11973 -0.518902,4.323926 -0.545492,4.36386 z"
         style="fill:#ff0000;stroke-width:0.02457502" />
      <path
         inkscape:connector-curvature="0"
         id="path3138"
         d="m 76.962247,27.999802 0.199573,0.01329 c 0,0 -0.03989,-0.984524 -0.05323,-1.077664 -0.01329,-0.09311 -0.06648,-0.0532 -0.06648,-0.0532 z"
         style="fill:#ff0000;stroke-width:0.02457502" />
      <path
         inkscape:connector-curvature="0"
         id="path3140"
         d="m 76.696148,28.365626 c -0.02922,0.0272 0.292689,-0.598672 0.705131,-0.09311 l -0.0034,0.126439 c 0,0 -0.322548,-0.385902 -0.701765,-0.03332 z"
         style="fill:#ff0000;stroke-width:0.02457502" />
      <path
         inkscape:connector-curvature="0"
         id="path3142"
         d="m 76.586323,28.555247 0.0067,0.179594 0.162982,-0.139684 h 0.582035 l 0.01998,0.319303 c 0,0 0.109777,-0.172959 0.136416,-0.192914 0.02659,-0.01998 0.02996,-0.162982 0.02996,-0.162982 L 77.39462,28.4322 76.726056,28.4388 Z"
         style="fill:#ff0000;stroke-width:0.02457502" />
      <path
         inkscape:connector-curvature="0"
         id="path3144"
         d="m 77.002107,29.030921 0.106435,-0.02664 c 0,0 -0.07982,6.944974 0.199573,7.477121 h -0.718426 c 0,0 0.625312,-7.317458 0.412418,-7.450481 z"
         style="fill:#ff0000;stroke-width:0.02457502" />
      <path
         inkscape:connector-curvature="0"
         id="path3146"
         d="m 75.685009,40.100272 0.172935,0.01327 c 0,0 0.532147,-2.394786 0.518877,-2.368172 -0.0133,0.02661 -0.13305,-0.01327 -0.13305,-0.01327 0,0 -0.518852,2.341557 -0.558762,2.368172 z"
         style="fill:#ff0000;stroke-width:0.02457502" />
      <path
         inkscape:connector-curvature="0"
         id="path3148"
         d="m 77.45446,37.785305 c 0.03993,0 0.133049,0.02659 0.133049,0.02659 0,0 0.75836,2.088778 0.798295,2.221828 0.03989,0.133073 0.03989,0.09316 0.03989,0.09316 l -0.385803,0.01329 z"
         style="fill:#ff0000;stroke-width:0.02457502" />
      <path
         inkscape:connector-curvature="0"
         id="path3150"
         d="m 78.15964,37.120059 c 0,0.03989 0.931295,2.980213 0.931295,2.980213 l -0.199574,0.03991 c 0,0 -0.971229,-2.993507 -1.011164,-2.993507 -0.03988,0 0.279443,-0.02661 0.279443,-0.02661 z"
         style="fill:#ff0000;stroke-width:0.02457502" />
      <path
         inkscape:connector-curvature="0"
         id="path3152"
         d="m 77.560968,36.481428 h 0.399098 c 0,0 -0.625311,-7.131155 -0.625311,-7.184433 0,-0.05318 0.199574,7.144499 0.226213,7.184433 z"
         style="fill:#ff0000;stroke-width:0.02457502" />
      <path
         inkscape:connector-curvature="0"
         id="path3154"
         d="m 75.651685,36.907141 c 0,0 0.05325,0.05989 0.04659,0.09314 -0.0067,0.03328 2.48129,0.03991 2.48129,0.03991 0,0 0.02659,-0.07318 0.04657,-0.08646 0.01995,-0.01332 -2.574455,-0.04659 -2.574455,-0.04659 z"
         style="fill:#ff0000;stroke-width:0.02457502" />
      <path
         inkscape:connector-curvature="0"
         id="path3156"
         d="m 74.108399,40.133473 c 0.01993,0 5.574573,0.03993 5.574573,0.03993 0,0 -0.05323,0.08648 -0.05323,0.139684 0,0.05328 -5.361704,-0.01327 -5.381659,0.02664 -0.01998,0.03988 -0.139684,-0.206258 -0.139684,-0.206258 z"
         style="fill:#ff0000;stroke-width:0.02457502" />
      <path
         inkscape:connector-curvature="0"
         id="path3158"
         d="m 74.055145,41.257731 c -0.0066,0.01998 -1.463467,2.135372 -1.463467,2.135372 0,0 0.166299,0.153029 0.186254,0.146369 0.01995,-0.0067 0.997868,-1.583246 1.044438,-1.589881 0.04654,-0.0067 0.339258,-0.558811 0.319303,-0.592061 -0.01998,-0.03327 -0.08653,-0.0998 -0.08653,-0.0998 z"
         style="fill:#ff0000;stroke-width:0.02457502" />
      <path
         inkscape:connector-curvature="0"
         id="path3160"
         d="m 74.287993,44.810025 c 0,-0.02664 0.365873,-1.177463 1.017774,-1.6365 0.651902,-0.458987 1.177463,-0.538832 1.237328,-0.545418 0.05987,-0.0067 0.618676,-0.0067 0.87143,0.04652 0.252754,0.05325 1.057734,0.512266 1.117598,0.592086 0.05987,0.07982 0.419127,0.585377 0.505558,0.711791 0.0865,0.126389 0.246143,0.618676 0.286078,0.88475 0.03988,0.266073 0.05986,0.392487 0.05986,0.392487 0,0 -0.113094,-0.977889 -0.02664,-1.024483 0.08653,-0.04657 0.206258,-0.09312 0.206258,-0.09312 0,0 -0.459012,-0.87143 -1.277237,-1.510012 -0.818226,-0.638656 -3.49909,-0.79166 -4.051217,2.175258 z"
         style="fill:#ff0000;stroke-width:0.02457502" />
      <path
         inkscape:connector-curvature="0"
         id="path3162"
         d="m 79.769402,41.390755 c 0,0 1.370401,2.062188 1.383697,2.102123 0.01329,0.03991 -0.306033,0.192914 -0.306033,0.192914 L 79.696267,41.41071 Z"
         style="fill:#ff0000;stroke-width:0.02457502" />
      <path
         inkscape:connector-curvature="0"
         id="path3164"
         d="m 74.14332,41.98611 c -0.02497,0.03497 -0.169642,0.279393 -0.169642,0.279393 l -0.139709,-0.219504 z"
         style="fill:#ff0000;stroke-width:0.02457502" />
      <path
         inkscape:connector-curvature="0"
         id="path3166"
         d="m 73.414867,42.719551 c 0.01497,-0.005 0.244497,0.005 0.244497,0.005 l 0.159639,-0.274405 z"
         style="fill:#ff0000;stroke-width:0.02457502" />
      <path
         inkscape:connector-curvature="0"
         id="path3168"
         d="m 73.320081,42.849258 0.244473,0.01998 -0.184608,0.25445 -0.06987,-0.259438 c 2.5e-5,0 0.01499,-0.02494 0.01,-0.01499 z"
         style="fill:#ff0000;stroke-width:0.02457502" />
      <polygon
         transform="matrix(0.02457502,0,0,0.02457502,69.858149,26.873701)"
         id="polygon3170"
         points="180.867,642.967 187.972,632.817 172.95,631.396 "
         style="fill:#ff0000" />
      <polygon
         transform="matrix(0.02457502,0,0,0.02457502,69.858149,26.873701)"
         id="polygon3172"
         points="177.01,626.727 191.627,627.538 197.312,617.185 "
         style="fill:#ff0000" />
      <polygon
         transform="matrix(0.02457502,0,0,0.02457502,69.858149,26.873701)"
         id="polygon3174"
         points="180.258,613.53 171.528,624.493 193.047,615.153 "
         style="fill:#ff0000" />
      <polygon
         transform="matrix(0.02457502,0,0,0.02457502,69.858149,26.873701)"
         id="polygon3176"
         points="175.994,652.915 168.686,663.474 150.415,663.879 "
         style="fill:#ff0000" />
      <polygon
         transform="matrix(0.02457502,0,0,0.02457502,69.858149,26.873701)"
         id="polygon3178"
         points="165.438,668.752 157.723,679.511 149.196,668.345 "
         style="fill:#ff0000" />
      <polygon
         transform="matrix(0.02457502,0,0,0.02457502,69.858149,26.873701)"
         id="polygon3180"
         points="144.121,669.97 152.647,681.339 127.879,676.871 "
         style="fill:#ff0000" />
      <polygon
         transform="matrix(0.02457502,0,0,0.02457502,69.858149,26.873701)"
         id="polygon3182"
         points="135.594,657.787 125.443,671.796 140.263,664.488 "
         style="fill:#ff0000" />
      <polygon
         transform="matrix(0.02457502,0,0,0.02457502,69.858149,26.873701)"
         id="polygon3184"
         points="168.077,634.644 160.362,644.998 175.589,644.998 "
         style="fill:#ff0000" />
      <path
         inkscape:connector-curvature="0"
         id="path3186"
         d="m 75.931914,37.308771 c 0.01747,0.01995 0.08734,0.119754 0.08734,0.119754 l 0.02743,-0.214516 z"
         style="fill:#ff0000;stroke-width:0.02457502" />
      <path
         inkscape:connector-curvature="0"
         id="path3188"
         d="m 75.814642,37.141636 0.09233,0.117247 0.132213,-0.124743 -0.229506,-0.04242 c 0,0 -0.09481,0.379168 -0.08732,0.381699 0.0075,0.0025 0.231988,0.0075 0.231988,0.0075 l -0.07232,-0.13472 -0.117247,0.04991 z"
         style="fill:#ff0000;stroke-width:0.02457502" />
      <polygon
         transform="matrix(0.02457502,0,0,0.02457502,69.858149,26.873701)"
         id="polygon3190"
         points="257.304,416.906 266.338,417.516 261.262,422.592 "
         style="fill:#ff0000" />
      <polygon
         transform="matrix(0.02457502,0,0,0.02457502,69.858149,26.873701)"
         id="polygon3192"
         points="260.349,425.737 254.563,431.322 262.886,431.322 "
         style="fill:#ff0000" />
      <polygon
         transform="matrix(0.02457502,0,0,0.02457502,69.858149,26.873701)"
         id="polygon3194"
         points="254.359,419.343 253.345,429.088 258.623,424.621 "
         style="fill:#ff0000" />
      <path
         inkscape:connector-curvature="0"
         id="path3196"
         d="m 76.420834,37.208996 c 0,0.0075 -0.01995,0.204562 -0.01995,0.204562 l -0.0898,-0.104787 z"
         style="fill:#ff0000;stroke-width:0.02457502" />
      <polygon
         transform="matrix(0.02457502,0,0,0.02457502,69.858149,26.873701)"
         id="polygon3198"
         points="271.007,419.851 269.281,429.494 275.88,424.926 "
         style="fill:#ff0000" />
      <polygon
         transform="matrix(0.02457502,0,0,0.02457502,69.858149,26.873701)"
         id="polygon3200"
         points="273.24,417.413 285.116,417.719 278.822,423.199 "
         style="fill:#ff0000" />
      <path
         inkscape:connector-curvature="0"
         id="path3202"
         d="m 76.690299,37.338703 c -0.01,0.0075 -0.164652,0.132214 -0.164652,0.132214 l 0.31429,0.01248 -0.149638,-0.15212 z"
         style="fill:#ff0000;stroke-width:0.02457502" />
      <polygon
         transform="matrix(0.02457502,0,0,0.02457502,69.858149,26.873701)"
         id="polygon3204"
         points="280.854,424.418 286.639,430.407 287.146,418.734 "
         style="fill:#ff0000" />
      <polygon
         transform="matrix(0.02457502,0,0,0.02457502,69.858149,26.873701)"
         id="polygon3206"
         points="289.379,419.242 289.076,430.915 295.064,425.332 "
         style="fill:#ff0000" />
      <polygon
         transform="matrix(0.02457502,0,0,0.02457502,69.858149,26.873701)"
         id="polygon3208"
         points="291.309,432.234 297.703,426.651 305.013,432.134 "
         style="fill:#ff0000" />
      <polygon
         transform="matrix(0.02457502,0,0,0.02457502,69.858149,26.873701)"
         id="polygon3210"
         points="305.621,420.357 305.621,429.393 300.343,424.824 "
         style="fill:#ff0000" />
      <polygon
         transform="matrix(0.02457502,0,0,0.02457502,69.858149,26.873701)"
         id="polygon3212"
         points="316.382,444.314 326.431,450.404 326.33,443.909 "
         style="fill:#ff0000" />
      <polygon
         transform="matrix(0.02457502,0,0,0.02457502,69.858149,26.873701)"
         id="polygon3214"
         points="282.037,73.164 303.423,73.028 293.542,85.208 "
         style="fill:#ff0000" />
      <path
         inkscape:connector-curvature="0"
         id="path3216"
         d="m 77.507689,28.778118 c -0.01,0.01664 -0.146344,0.239483 -0.146344,0.239483 l 0.01661,0.505557 0.03657,-0.315961 0.07655,-0.103116 z"
         style="fill:#ff0000;stroke-width:0.02457502" />
      <path
         inkscape:connector-curvature="0"
         id="path3218"
         d="m 76.606302,28.778118 c 0,0 0.139684,0.172983 0.133025,0.202891 -0.0067,0.02993 -0.09309,0.08648 -0.09309,0.08648 l -0.04994,-0.01332 z"
         style="fill:#ff0000;stroke-width:0.02457502" />
      <path
         inkscape:connector-curvature="0"
         id="path3220"
         d="m 76.439978,38.526979 c 0.01,0 0.987892,0.01996 0.987892,0.01996 l 0.222797,1.516696 0.226164,-0.0033 -0.442351,-1.663066 -1.001137,0.06652 z"
         style="fill:#ff0000;stroke-width:0.02457502" />
      <path
         inkscape:connector-curvature="0"
         id="path3222"
         d="m 76.406753,38.46709 c 0,0.01 -0.106484,1.290557 -0.246144,1.586563 l -0.133073,0.0034 0.345918,-1.589906 h 0.0333 z"
         style="fill:#ff0000;stroke-width:0.02457502" />
      <polygon
         transform="matrix(0.02457502,0,0,0.02457502,69.858149,26.873701)"
         id="polygon3224"
         points="306.265,466.477 307.482,454.701 306.4,454.567 304.642,462.959 272.158,462.822 270.939,453.889 290.7,453.619 298.414,453.755 268.774,450.911 268.909,453.349 267.556,465.665 "
         style="fill:#ff0000" />
      <path
         inkscape:connector-curvature="0"
         id="path3226"
         d="m 77.590826,37.881713 c 0.02659,0.01 0.305984,0.169616 0.305984,0.169616 0,0 -0.176252,0.159689 -0.182912,0.169642 -0.0067,0.01 -0.123072,-0.339258 -0.123072,-0.339258 z"
         style="fill:#ff0000;stroke-width:0.02457502" />
      <polygon
         transform="matrix(0.02457502,0,0,0.02457502,69.858149,26.873701)"
         id="polygon3228"
         points="319.392,466.477 328.597,459.033 330.355,467.289 319.257,467.289 "
         style="fill:#ff0000" />
      <polygon
         transform="matrix(0.02457502,0,0,0.02457502,69.858149,26.873701)"
         id="polygon3230"
         points="347.951,516.387 359.117,524.607 351.91,527.958 "
         style="fill:#ff0000" />
      <path
         inkscape:connector-curvature="0"
         id="path3232"
         d="m 77.7904,38.438828 c 0.01747,0.005 0.20702,0.005 0.20702,0.005 l 0.0624,0.192103 z"
         style="fill:#ff0000;stroke-width:0.02457502" />
      <path
         inkscape:connector-curvature="0"
         id="path3234"
         d="m 75.961871,38.042187 c 0.0025,-0.0075 0.271898,-0.16217 0.271898,-0.16217 l -0.07483,0.361744 z"
         style="fill:#ff0000;stroke-width:0.02457502" />
      <polygon
         transform="matrix(0.02457502,0,0,0.02457502,69.858149,26.873701)"
         id="polygon3236"
         points="249.588,442.894 248.065,450.303 258.42,443.401 "
         style="fill:#ff0000" />
      <polygon
         transform="matrix(0.02457502,0,0,0.02457502,69.858149,26.873701)"
         id="polygon3238"
         points="245.833,443.909 236.292,442.486 243.802,450.303 "
         style="fill:#ff0000" />
      <path
         inkscape:connector-curvature="0"
         id="path3240"
         d="m 75.627577,37.880017 c 0.01251,0.01 0.182126,0.152193 0.182126,0.152193 l -0.261945,0.167135 z"
         style="fill:#ff0000;stroke-width:0.02457502" />
      <polygon
         transform="matrix(0.02457502,0,0,0.02457502,69.858149,26.873701)"
         id="polygon3242"
         points="246.644,457.814 244.005,466.342 255.171,467.053 "
         style="fill:#ff0000" />
      <polygon
         transform="matrix(0.02457502,0,0,0.02457502,69.858149,26.873701)"
         id="polygon3244"
         points="253.345,474.361 240.555,482.786 249.69,491.211 "
         style="fill:#ff0000" />
      <polygon
         transform="matrix(0.02457502,0,0,0.02457502,69.858149,26.873701)"
         id="polygon3246"
         points="247.457,503.291 232.23,511.919 242.99,522.578 "
         style="fill:#ff0000" />
      <path
         inkscape:connector-curvature="0"
         id="path3248"
         d="m 75.502834,39.568886 c -0.0075,0.01 -0.179618,0.486463 -0.179618,0.486463 l 0.376686,-0.209576 z"
         style="fill:#ff0000;stroke-width:0.02457502" />
      <polygon
         transform="matrix(0.02457502,0,0,0.02457502,69.858149,26.873701)"
         id="polygon3250"
         points="238.017,486.847 232.535,506.133 244.209,499.738 245.934,493.648 "
         style="fill:#ff0000" />
      <path
         inkscape:connector-curvature="0"
         id="path3252"
         d="m 75.797219,38.174426 c -0.0025,0.0075 -0.04242,0.189596 -0.04242,0.189596 l -0.249485,-0.03495 z"
         style="fill:#ff0000;stroke-width:0.02457502" />
      <path
         inkscape:connector-curvature="0"
         id="path3254"
         d="m 75.277482,41.984512 -0.102405,-0.162588 c -0.01425,-0.02772 -0.04367,-0.04699 -0.07802,-0.04699 -0.04819,0 -0.08732,0.0376 -0.08732,0.084 0,0.0174 0.0055,0.03355 0.01489,0.04694 0.0026,0.0037 0.0056,0.0071 0.0088,0.01039 l 0.107663,0.14804 z"
         style="fill:#ff0000;stroke-width:0.02457502" />
      <path
         inkscape:connector-curvature="0"
         id="path3256"
         d="m 75.483887,41.895084 -0.08584,-0.154012 c -0.01167,-0.02607 -0.0379,-0.04534 -0.06982,-0.04738 -0.04485,-0.0028 -0.08338,0.02912 -0.08606,0.07129 -10e-4,0.01585 0.0031,0.03084 0.01118,0.0436 0.0022,0.0035 0.0048,0.0068 0.0076,0.0099 l 0.09154,0.141134 z"
         style="fill:#ff0000;stroke-width:0.02457502" />
      <path
         inkscape:connector-curvature="0"
         id="path3258"
         d="m 75.55024,41.884688 0.16131,-0.04989 c 0,0 -0.0665,-0.1879 -0.151333,-0.138038 0,0 -0.08817,0.05989 -0.01165,0.184608 0.07653,0.124718 0.0017,0.0033 0.0017,0.0033 z"
         style="fill:#ff0000;stroke-width:0.02457502" />
      <path
         inkscape:connector-curvature="0"
         id="path3260"
         d="m 74.737003,42.285507 c -1.96e-4,0.006 0.128061,-0.07984 0.128061,-0.07984 0,0 -0.124719,-0.01664 -0.128061,0.07984 z"
         style="fill:#ff0000;stroke-width:0.02457502" />
      <path
         inkscape:connector-curvature="0"
         id="path3262"
         d="m 74.924928,42.169071 c 0.01332,-0.01162 0.138038,-0.08478 0.138038,-0.08478 l -0.04325,-0.06987 c 0,0 -0.159639,-0.05485 -0.144698,0.08481 z"
         style="fill:#ff0000;stroke-width:0.02457502" />
      <path
         inkscape:connector-curvature="0"
         id="path3264"
         d="m 75.769793,41.816517 0.167921,-0.02996 -0.0067,-0.04659 c 0,0 -0.113094,-0.09643 -0.166299,0.02165 z"
         style="fill:#ff0000;stroke-width:0.02457502" />
      <path
         inkscape:connector-curvature="0"
         id="path3266"
         d="m 76.002592,41.764934 0.166324,-0.02996 c 0,0 -0.08483,-0.08147 -0.166324,0.02996 z"
         style="fill:#ff0000;stroke-width:0.02457502" />
      <path
         inkscape:connector-curvature="0"
         id="path3268"
         d="m 75.518636,38.387294 c 0.03328,0.01 0.189572,0.03989 0.189572,0.03989 l -0.04657,0.179619 -0.182912,-0.159615 z"
         style="fill:#ff0000;stroke-width:0.02457502" />
      <path
         inkscape:connector-curvature="0"
         id="path3270"
         d="m 75.472091,38.556887 c -0.01565,0.04694 0.156346,0.169666 0.156346,0.169666 l -0.226188,0.109752 c 0,0 0.07318,-0.289371 0.06984,-0.279418 z"
         style="fill:#ff0000;stroke-width:0.02457502" />
      <path
         inkscape:connector-curvature="0"
         id="path3272"
         d="m 75.345702,39.042514 c 0.01329,0 0.199574,0.01666 0.199574,0.01666 l 0.04991,-0.222847 -0.249485,0.139709 0.0033,0.0532 0.166324,0.116412 -0.06987,0.206209 -0.143002,-0.222822 0.0898,0.419103 -0.256071,0.319303 z"
         style="fill:#ff0000;stroke-width:0.02457502" />
      <polygon
         transform="matrix(0.02457502,0,0,0.02457502,69.858149,26.873701)"
         id="polygon3274"
         points="312.017,432.438 321.154,432.031 315.671,427.159 "
         style="fill:#ff0000" />
      <polygon
         transform="matrix(0.02457502,0,0,0.02457502,69.858149,26.873701)"
         id="polygon3276"
         points="170.311,609.064 203.605,610.079 219.237,586.123 200.56,603.786 "
         style="fill:#ff0000" />
      <path
         inkscape:connector-curvature="0"
         id="path3278"
         d="m 77.835274,41.776608 0.164677,0.04986 c 0,0 -0.005,-0.184583 -0.164677,-0.04986 z"
         style="fill:#ff0000;stroke-width:0.02457502" />
      <path
         inkscape:connector-curvature="0"
         id="path3280"
         d="m 79.04267,42.105888 c 0.01,0.01996 0.129731,0.244448 0.129731,0.244448 l 0.409125,-0.01497 -0.349285,-0.06488 z"
         style="fill:#ff0000;stroke-width:0.02457502" />
      <path
         inkscape:connector-curvature="0"
         id="path3282"
         d="m 79.262198,42.47009 c 0.01993,0.02996 0.15964,0.25445 0.15964,0.25445 l 0.199573,-0.239484 -0.199573,0.0998 z"
         style="fill:#ff0000;stroke-width:0.02457502" />
      <path
         inkscape:connector-curvature="0"
         id="path3284"
         d="m 79.541616,42.954046 c 0.01497,0.02494 0.169617,0.274405 0.169617,0.274405 l 0.229481,-0.005 -0.199524,-0.07486 z"
         style="fill:#ff0000;stroke-width:0.02457502" />
      <path
         inkscape:connector-curvature="0"
         id="path3286"
         d="m 78.064805,41.861391 0.932991,0.498972 c 0,0 -0.763374,-0.64362 -0.843194,-0.638656 -0.07982,0.005 -0.09479,0.109777 -0.09479,0.124743"
         style="fill:#ff0000;stroke-width:0.02457502" />
      <polygon
         transform="matrix(0.02457502,0,0,0.02457502,69.858149,26.873701)"
         id="polygon3288"
         points="325.009,477.508 334.552,483.802 328.664,490.703 "
         style="fill:#ff0000" />
      <polygon
         transform="matrix(0.02457502,0,0,0.02457502,69.858149,26.873701)"
         id="polygon3290"
         points="336.175,488.268 330.289,496.795 339.019,500.246 "
         style="fill:#ff0000" />
      <polygon
         transform="matrix(0.02457502,0,0,0.02457502,69.858149,26.873701)"
         id="polygon3292"
         points="337.8,513.035 346.125,522.578 341.861,526.638 "
         style="fill:#ff0000" />
      <polygon
         transform="matrix(0.02457502,0,0,0.02457502,69.858149,26.873701)"
         id="polygon3294"
         points="331.708,426.956 328.054,431.626 334.146,432.234 "
         style="fill:#ff0000" />
      <path
         inkscape:connector-curvature="0"
         id="path3296"
         d="m 76.148961,36.298491 c 0.03492,0.02991 0.139709,0.124719 0.139709,0.124719 l 0.27438,-0.289371 -0.129682,-0.184583 -0.289371,0.214515 z"
         style="fill:#ff0000;stroke-width:0.02457502" />
      <path
         inkscape:connector-curvature="0"
         id="path3298"
         d="m 76.223792,35.724714 c 0.01497,0.02494 0.119754,0.204562 0.119754,0.204562 l -0.184608,0.124719 z"
         style="fill:#ff0000;stroke-width:0.02457502" />
      <path
         inkscape:connector-curvature="0"
         id="path3300"
         d="m 76.213814,35.455298 c 0.01497,0.02993 0.189597,0.274405 0.189597,0.274405 l 0.229481,-0.234495 -0.169617,-0.249461 z"
         style="fill:#ff0000;stroke-width:0.02457502" />
      <polygon
         transform="matrix(0.02457502,0,0,0.02457502,69.858149,26.873701)"
         id="polygon3302"
         points="259.841,344.53 265.932,337.628 259.841,329.711 "
         style="fill:#ff0000" />
      <polygon
         transform="matrix(0.02457502,0,0,0.02457502,69.858149,26.873701)"
         id="polygon3304"
         points="260.45,320.778 269.992,314.078 262.48,304.942 "
         style="fill:#ff0000" />
      <polygon
         transform="matrix(0.02457502,0,0,0.02457502,69.858149,26.873701)"
         id="polygon3306"
         points="263.901,283.828 261.669,297.836 272.429,290.528 "
         style="fill:#ff0000" />
      <polygon
         transform="matrix(0.02457502,0,0,0.02457502,69.858149,26.873701)"
         id="polygon3308"
         points="264.307,276.113 274.661,267.79 266.135,259.06 263.901,277.129 "
         style="fill:#ff0000" />
      <polygon
         transform="matrix(0.02457502,0,0,0.02457502,69.858149,26.873701)"
         id="polygon3310"
         points="266.541,253.579 266.744,254.593 277.504,246.27 267.556,237.54 "
         style="fill:#ff0000" />
      <polygon
         transform="matrix(0.02457502,0,0,0.02457502,69.858149,26.873701)"
         id="polygon3312"
         points="269.79,215.817 267.962,233.277 277.504,226.374 "
         style="fill:#ff0000" />
      <polygon
         transform="matrix(0.02457502,0,0,0.02457502,69.858149,26.873701)"
         id="polygon3314"
         points="270.601,213.583 278.723,206.681 271.007,198.967 "
         style="fill:#ff0000" />
      <polygon
         transform="matrix(0.02457502,0,0,0.02457502,69.858149,26.873701)"
         id="polygon3316"
         points="272.022,195.718 279.939,190.237 272.631,182.116 "
         style="fill:#ff0000" />
      <polygon
         transform="matrix(0.02457502,0,0,0.02457502,69.858149,26.873701)"
         id="polygon3318"
         points="273.037,179.68 280.955,173.387 273.849,165.062 "
         style="fill:#ff0000" />
      <polygon
         transform="matrix(0.02457502,0,0,0.02457502,69.858149,26.873701)"
         id="polygon3320"
         points="274.255,163.438 280.955,158.972 275.27,150.851 "
         style="fill:#ff0000" />
      <polygon
         transform="matrix(0.02457502,0,0,0.02457502,69.858149,26.873701)"
         id="polygon3322"
         points="275.88,148.618 282.376,143.543 277.098,138.67 "
         style="fill:#ff0000" />
      <path
         inkscape:connector-curvature="0"
         id="path3324"
         d="M 76.662849,30.206688 76.802558,30.1019 c 0,0 -0.104812,-0.159639 -0.104812,-0.139709 -2.5e-5,0.01998 -0.0349,0.244497 -0.0349,0.244497 z"
         style="fill:#ff0000;stroke-width:0.02457502" />
      <polygon
         transform="matrix(0.02457502,0,0,0.02457502,69.858149,26.873701)"
         id="polygon3326"
         points="277.504,122.429 283.798,119.181 278.314,112.887 "
         style="fill:#ff0000" />
      <polygon
         transform="matrix(0.02457502,0,0,0.02457502,69.858149,26.873701)"
         id="polygon3328"
         points="279.33,111.668 284.406,107.811 279.33,102.33 "
         style="fill:#ff0000" />
      <polygon
         transform="matrix(0.02457502,0,0,0.02457502,69.858149,26.873701)"
         id="polygon3330"
         points="280.549,100.097 284.203,97.864 281.563,93.397 "
         style="fill:#ff0000" />
      <path
         inkscape:connector-curvature="0"
         id="path3332"
         d="m 76.376771,34.978027 c 0.01998,0.01329 0.0865,0.152979 0.0865,0.152979 l 0.212869,-0.246143 -0.179619,-0.01329 -0.106434,-0.139709 z"
         style="fill:#ff0000;stroke-width:0.02457502" />
      <polygon
         transform="matrix(0.02457502,0,0,0.02457502,69.858149,26.873701)"
         id="polygon3334"
         points="266.878,304.874 271.75,310.83 278.248,305.146 272.833,304.604 268.232,297.295 266.338,297.836 "
         style="fill:#ff0000" />
      <polygon
         transform="matrix(0.02457502,0,0,0.02457502,69.858149,26.873701)"
         id="polygon3336"
         points="268.503,282.407 274.187,287.82 279.602,281.595 273.104,281.055 271.21,273.474 268.503,275.099 "
         style="fill:#ff0000" />
      <polygon
         transform="matrix(0.02457502,0,0,0.02457502,69.858149,26.873701)"
         id="polygon3338"
         points="270.668,259.128 277.165,265.625 280.955,263.458 275.541,259.669 279.602,249.112 270.397,255.88 "
         style="fill:#ff0000" />
      <polygon
         transform="matrix(0.02457502,0,0,0.02457502,69.858149,26.873701)"
         id="polygon3340"
         points="277.436,235.307 278.52,243.699 271.752,238.826 272.022,235.036 280.144,228.27 "
         style="fill:#ff0000" />
      <path
         inkscape:connector-curvature="0"
         id="path3346"
         d="m 80.249205,44.211304 c -3.455248,-5.727381 -6.829153,-1.72e-4 -6.779413,-0.05986 3.458738,-4.153694 5.630039,-1.308153 6.385475,0.05986 z"
         style="fill:#ff0000;stroke-width:0.02457502" />
    </g>
    <path
       d="m 35.546192,37.259326 h 7.110677 v 1.674688 h -2.557983 v 6.917435 h -1.989543 v -6.917435 h -2.563151 z"
       style="font-style:normal;font-weight:normal;font-size:medium;line-height:1.25;font-family:sans-serif;letter-spacing:0px;word-spacing:0px;opacity:0.38000039;fill:#000080;fill-opacity:1;stroke:none;stroke-width:0.27921355;filter:url(#filter6937)"
       id="path5747"
       inkscape:connector-curvature="0" />
    <path
       d="m 46.739307,41.161175 q -0.24288,-0.126609 -0.485759,-0.184159 -0.237712,-0.06331 -0.480591,-0.06331 -0.713134,0 -1.100707,0.51219 -0.382406,0.506434 -0.382406,1.455998 v 2.969549 h -1.850017 v -6.44553 h 1.850017 v 1.058907 q 0.356567,-0.633042 0.816487,-0.920789 0.465089,-0.293502 1.111043,-0.293502 0.09302,0 0.201538,0.01151 0.108521,0.0058 0.315227,0.03453 z"
       style="font-style:normal;font-weight:normal;font-size:medium;line-height:1.25;font-family:sans-serif;letter-spacing:0px;word-spacing:0px;opacity:0.38000039;fill:#000080;fill-opacity:1;stroke:none;stroke-width:0.27921355;filter:url(#filter6609)"
       id="path5749"
       inkscape:connector-curvature="0" />
    <path
       d="m 54.092862,39.405919 h 1.850017 l 1.441772,4.454321 1.436605,-4.454321 h 1.855183 l -2.27893,6.44553 h -2.030884 z"
       style="font-style:normal;font-weight:normal;font-size:medium;line-height:1.25;font-family:sans-serif;letter-spacing:0px;word-spacing:0px;opacity:0.38000039;fill:#000080;fill-opacity:1;stroke:none;stroke-width:0.27921355;filter:url(#filter6529)"
       id="path5751"
       inkscape:connector-curvature="0" />
    <path
       d="m 67.502896,42.611419 v 0.587003 h -4.325317 q 0.06717,0.725122 0.470255,1.087683 0.403076,0.362561 1.126546,0.362561 0.583944,0 1.193726,-0.189913 0.61495,-0.195667 1.260904,-0.587004 v 1.588364 q -0.65629,0.276237 -1.312581,0.414355 -0.65629,0.143874 -1.312581,0.143874 -1.570963,0 -2.444295,-0.886261 -0.868164,-0.892016 -0.868164,-2.497642 0,-1.576853 0.852661,-2.480379 0.857828,-0.903525 2.356445,-0.903525 1.364258,0 2.180746,0.915035 0.821655,0.915035 0.821655,2.445849 z m -1.901693,-0.684838 q 0,-0.587003 -0.310058,-0.943809 -0.304891,-0.362562 -0.800985,-0.362562 -0.537435,0 -0.873331,0.339541 -0.335898,0.333787 -0.41858,0.96683 z"
       style="font-style:normal;font-weight:normal;font-size:medium;line-height:1.25;font-family:sans-serif;letter-spacing:0px;word-spacing:0px;opacity:0.38000039;fill:#000080;fill-opacity:1;stroke:none;stroke-width:0.27921355;filter:url(#filter6605)"
       id="path5753"
       inkscape:connector-curvature="0" />
    <path
       d="m 68.898163,36.896766 h 1.850013 v 8.954683 h -1.850013 z"
       style="font-style:normal;font-weight:normal;font-size:medium;line-height:1.25;font-family:sans-serif;letter-spacing:0px;word-spacing:0px;opacity:0.38000039;fill:#000080;fill-opacity:1;stroke:none;stroke-width:0.27921355;filter:url(#filter7167)"
       id="path5755"
       inkscape:connector-curvature="0" />
    <text
       xml:space="preserve"
       style="font-style:normal;font-weight:normal;font-size:4.49268484px;line-height:1.25;font-family:sans-serif;letter-spacing:0px;word-spacing:0px;fill:#000080;fill-opacity:1;stroke:none;stroke-width:0.11231712"
       x="56.775139"
       y="57.046036"
       id="text7429"
       transform="scale(1.2572086,0.79541295)"><tspan
         sodipodi:role="line"
         id="tspan7427"
         x="56.775139"
         y="61.021008"
         style="font-style:normal;font-variant:normal;font-weight:bold;font-stretch:normal;font-family:sans-serif;-inkscape-font-specification:'sans-serif Bold';fill:#000080;stroke-width:0.11231712" /></text>
  </g>
</svg>
